<svg width="36" height="40" viewBox="0 0 36 40" fill="none" xmlns="http://www.w3.org/2000/svg">
<g clip-path="url(#clip0_104_237)">
<path d="M13.5045 13.75C13.5045 14.7446 13.1489 15.6984 12.516 16.4017C11.8831 17.1049 11.0246 17.5 10.1295 17.5C9.23441 17.5 8.37597 17.1049 7.74303 16.4017C7.1101 15.6984 6.75452 14.7446 6.75452 13.75C6.75452 12.7554 7.1101 11.8016 7.74303 11.0983C8.37597 10.3951 9.23441 10 10.1295 10C11.0246 10 11.8831 10.3951 12.516 11.0983C13.1489 11.8016 13.5045 12.7554 13.5045 13.75V13.75Z" fill="#28522B"/>
<path d="M4.50452 2.5C3.31104 2.5 2.16645 3.02678 1.32254 3.96447C0.478622 4.90215 0.0045166 6.17392 0.0045166 7.5V32.5C0.0045166 33.8261 0.478622 35.0979 1.32254 36.0355C2.16645 36.9732 3.31104 37.5 4.50452 37.5H31.5045C32.698 37.5 33.8426 36.9732 34.6865 36.0355C35.5304 35.0979 36.0045 33.8261 36.0045 32.5V7.5C36.0045 6.17392 35.5304 4.90215 34.6865 3.96447C33.8426 3.02678 32.698 2.5 31.5045 2.5H4.50452V2.5ZM31.5045 5C32.1013 5 32.6735 5.26339 33.0955 5.73223C33.5175 6.20107 33.7545 6.83696 33.7545 7.5V23.75L25.2563 18.8825C25.0453 18.7651 24.8064 18.7243 24.5734 18.766C24.3404 18.8078 24.1251 18.9298 23.958 19.115L15.6105 28.39L9.62552 23.96C9.40943 23.8001 9.15023 23.7283 8.89188 23.7565C8.63353 23.7848 8.39192 23.9114 8.20802 24.115L2.25452 30V7.5C2.25452 6.83696 2.49157 6.20107 2.91353 5.73223C3.33548 5.26339 3.90778 5 4.50452 5H31.5045Z" fill="#28522B"/>
</g>
<defs>
<clipPath id="clip0_104_237">
<rect width="36" height="40" fill="white"/>
</clipPath>
</defs>
</svg>
