<svg width="60" height="60" viewBox="0 0 60 60" fill="none" xmlns="http://www.w3.org/2000/svg">
<path d="M56.25 15H48.5625C47.625 10.6875 43.875 7.5 39.375 7.5C34.875 7.5 31.125 10.6875 30.1875 15H3.75V18.75H30.1875C31.125 23.0625 34.875 26.25 39.375 26.25C43.875 26.25 47.625 23.0625 48.5625 18.75H56.25V15ZM39.375 22.5C36.1875 22.5 33.75 20.0625 33.75 16.875C33.75 13.6875 36.1875 11.25 39.375 11.25C42.5625 11.25 45 13.6875 45 16.875C45 20.0625 42.5625 22.5 39.375 22.5ZM3.75 45H11.4375C12.375 49.3125 16.125 52.5 20.625 52.5C25.125 52.5 28.875 49.3125 29.8125 45H56.25V41.25H29.8125C28.875 36.9375 25.125 33.75 20.625 33.75C16.125 33.75 12.375 36.9375 11.4375 41.25H3.75V45ZM20.625 37.5C23.8125 37.5 26.25 39.9375 26.25 43.125C26.25 46.3125 23.8125 48.75 20.625 48.75C17.4375 48.75 15 46.3125 15 43.125C15 39.9375 17.4375 37.5 20.625 37.5Z" fill="black"/>
</svg>
