<svg width="30" height="30" viewBox="0 0 30 30" fill="none" xmlns="http://www.w3.org/2000/svg">
<path d="M15 5.25C16.2804 5.25 17.5482 5.50219 18.7312 5.99218C19.9141 6.48216 20.9889 7.20034 21.8943 8.10571C22.7997 9.01108 23.5178 10.0859 24.0078 11.2688C24.4978 12.4518 24.75 13.7196 24.75 15C24.75 15.2984 24.8685 15.5845 25.0795 15.7955C25.2905 16.0065 25.5766 16.125 25.875 16.125C26.1734 16.125 26.4595 16.0065 26.6705 15.7955C26.8815 15.5845 27 15.2984 27 15C26.9999 12.9438 26.4715 10.9221 25.4655 9.1289C24.4594 7.33566 23.0095 5.83101 21.2547 4.75928C19.4999 3.68756 17.4991 3.08471 15.4444 3.00857C13.3896 2.93243 11.3497 3.38554 9.52044 4.32446C7.69114 5.26337 6.13379 6.65658 4.99777 8.37045C3.86175 10.0843 3.18517 12.0613 3.03294 14.1119C2.8807 16.1624 3.25791 18.2177 4.12839 20.0805C4.99887 21.9433 6.33341 23.5512 8.004 24.75H6.375C6.07663 24.75 5.79049 24.8685 5.57951 25.0795C5.36853 25.2905 5.25 25.5766 5.25 25.875C5.25 26.1734 5.36853 26.4595 5.57951 26.6705C5.79049 26.8815 6.07663 27 6.375 27H10.875C11.1734 27 11.4595 26.8815 11.6705 26.6705C11.8815 26.4595 12 26.1734 12 25.875V21.375C12 21.0766 11.8815 20.7905 11.6705 20.5795C11.4595 20.3685 11.1734 20.25 10.875 20.25C10.5766 20.25 10.2905 20.3685 10.0795 20.5795C9.86853 20.7905 9.75 21.0766 9.75 21.375V23.217C7.97252 22.0817 6.61109 20.4007 5.86997 18.4261C5.12884 16.4515 5.04799 14.2898 5.63953 12.2654C6.23108 10.2409 7.46313 8.4629 9.15084 7.19801C10.8385 5.93313 12.8909 5.24961 15 5.25V5.25ZM11.25 15C11.25 15.9946 11.6451 16.9484 12.3484 17.6517C13.0516 18.3549 14.0054 18.75 15 18.75C15.9946 18.75 16.9484 18.3549 17.6517 17.6517C18.3549 16.9484 18.75 15.9946 18.75 15C18.75 14.0054 18.3549 13.0516 17.6517 12.3484C16.9484 11.6451 15.9946 11.25 15 11.25C14.0054 11.25 13.0516 11.6451 12.3484 12.3484C11.6451 13.0516 11.25 14.0054 11.25 15V15ZM13.5 15C13.5 14.6022 13.658 14.2206 13.9393 13.9393C14.2206 13.658 14.6022 13.5 15 13.5C15.3978 13.5 15.7794 13.658 16.0607 13.9393C16.342 14.2206 16.5 14.6022 16.5 15C16.5 15.3978 16.342 15.7794 16.0607 16.0607C15.7794 16.342 15.3978 16.5 15 16.5C14.6022 16.5 14.2206 16.342 13.9393 16.0607C13.658 15.7794 13.5 15.3978 13.5 15Z" fill="black"/>
</svg>
