<svg width="30" height="30" viewBox="0 0 30 30" fill="none" xmlns="http://www.w3.org/2000/svg">
<path d="M15 5.24999C12.4141 5.24999 9.93419 6.27722 8.10571 8.1057C6.27723 9.93418 5.25 12.4141 5.25 15C5.25 15.2984 5.13147 15.5845 4.9205 15.7955C4.70952 16.0065 4.42337 16.125 4.125 16.125C3.82663 16.125 3.54048 16.0065 3.3295 15.7955C3.11853 15.5845 3 15.2984 3 15C3.00024 12.9439 3.52876 10.9224 4.53487 9.12935C5.54097 7.33628 6.99092 5.83178 8.74563 4.76017C10.5003 3.68856 12.501 3.08578 14.5556 3.00964C16.6103 2.9335 18.65 3.38655 20.4792 4.32535C22.3084 5.26415 23.8658 6.6572 25.0018 8.37089C26.1379 10.0846 26.8146 12.0614 26.967 14.1118C27.1194 16.1622 26.7424 18.2174 25.8722 20.0802C25.002 21.9431 23.6678 23.5511 21.9975 24.75H23.625C23.9234 24.75 24.2095 24.8685 24.4205 25.0795C24.6315 25.2905 24.75 25.5766 24.75 25.875C24.75 26.1734 24.6315 26.4595 24.4205 26.6705C24.2095 26.8815 23.9234 27 23.625 27H19.125C18.8266 27 18.5405 26.8815 18.3295 26.6705C18.1185 26.4595 18 26.1734 18 25.875V21.375C18 21.0766 18.1185 20.7905 18.3295 20.5795C18.5405 20.3685 18.8266 20.25 19.125 20.25C19.4234 20.25 19.7095 20.3685 19.9205 20.5795C20.1315 20.7905 20.25 21.0766 20.25 21.375V23.217C22.0275 22.0817 23.3889 20.4007 24.13 18.4261C24.8712 16.4515 24.952 14.2898 24.3605 12.2654C23.7689 10.2409 22.5369 8.46289 20.8492 7.19801C19.1615 5.93312 17.1091 5.2496 15 5.24999ZM18.75 15C18.75 15.9946 18.3549 16.9484 17.6517 17.6516C16.9484 18.3549 15.9946 18.75 15 18.75C14.0054 18.75 13.0516 18.3549 12.3483 17.6516C11.6451 16.9484 11.25 15.9946 11.25 15C11.25 14.0054 11.6451 13.0516 12.3483 12.3483C13.0516 11.6451 14.0054 11.25 15 11.25C15.9946 11.25 16.9484 11.6451 17.6517 12.3483C18.3549 13.0516 18.75 14.0054 18.75 15ZM16.5 15C16.5 14.6022 16.342 14.2206 16.0607 13.9393C15.7794 13.658 15.3978 13.5 15 13.5C14.6022 13.5 14.2206 13.658 13.9393 13.9393C13.658 14.2206 13.5 14.6022 13.5 15C13.5 15.3978 13.658 15.7794 13.9393 16.0607C14.2206 16.342 14.6022 16.5 15 16.5C15.3978 16.5 15.7794 16.342 16.0607 16.0607C16.342 15.7794 16.5 15.3978 16.5 15Z" fill="black"/>
</svg>
