<svg width="30" height="30" viewBox="0 0 30 30" fill="none" xmlns="http://www.w3.org/2000/svg">
<path d="M0 15.75H3V14.25H0V15.75ZM4.5 15.75H7.5V14.25H4.5V15.75ZM9 15.75H12V14.25H9V15.75ZM13.5 15.75H16.5V14.25H13.5V15.75ZM18 15.75H21V14.25H18V15.75ZM22.5 15.75H25.5V14.25H22.5V15.75ZM27 15.75H30V14.25H27V15.75ZM7.8165 0.000570949C7.61948 0.00552717 7.42783 0.0658329 7.26347 0.174591C7.09912 0.283349 6.96869 0.436168 6.8871 0.615571L2.6655 9.91557C2.59278 10.0756 2.5614 10.2513 2.57423 10.4266C2.58706 10.6019 2.64369 10.7712 2.73893 10.9189C2.83417 11.0667 2.96498 11.1881 3.11935 11.2722C3.27373 11.3562 3.44673 11.4002 3.6225 11.4L26.3796 11.385C26.5739 11.3848 26.7643 11.3307 26.9297 11.2288C27.0951 11.1268 27.229 10.981 27.3164 10.8075C27.4038 10.634 27.4414 10.4396 27.425 10.246C27.4085 10.0525 27.3387 9.86723 27.2232 9.71097L21.0393 1.34217C20.9495 1.22067 20.8345 1.11998 20.7022 1.04697C20.57 0.973972 20.4235 0.930379 20.2728 0.919171L7.9212 0.00297095C7.88626 0.000419896 7.85122 -0.000381105 7.8162 0.000570949H7.8165ZM8.4966 2.15157L19.6371 2.97777L24.2991 9.28587L5.2518 9.29877L8.4966 2.15157ZM3.6222 18.6C3.44647 18.5998 3.27351 18.6438 3.11917 18.7278C2.96483 18.8118 2.83406 18.9333 2.73882 19.0809C2.64359 19.2286 2.58694 19.3979 2.57408 19.5731C2.56122 19.7484 2.59255 19.9241 2.6652 20.0841L6.8871 29.3841C6.96864 29.5635 7.09905 29.7164 7.26342 29.8252C7.42778 29.934 7.61945 29.9944 7.8165 29.9994C7.85152 30.0003 7.88656 29.9995 7.9215 29.997L20.2728 29.0808C20.4235 29.0696 20.57 29.026 20.7022 28.953C20.8345 28.88 20.9495 28.7793 21.0393 28.6578L27.2232 20.289C27.3387 20.1327 27.4085 19.9475 27.425 19.7539C27.4414 19.5603 27.4038 19.3659 27.3164 19.1924C27.229 19.0189 27.0951 18.8731 26.9297 18.7711C26.7643 18.6692 26.5739 18.6151 26.3796 18.615L3.6222 18.6Z" fill="black"/>
</svg>
