<svg width="30" height="30" viewBox="0 0 30 30" fill="none" xmlns="http://www.w3.org/2000/svg">
<path d="M0.000631984 22.1835C0.00558821 22.3805 0.0658939 22.5722 0.174652 22.7365C0.28341 22.9009 0.436229 23.0313 0.615632 23.1129L9.91563 27.3345C10.0757 27.4072 10.2514 27.4386 10.4267 27.4258C10.602 27.4129 10.7713 27.3563 10.919 27.2611C11.0667 27.1658 11.1882 27.035 11.2722 26.8806C11.3563 26.7263 11.4002 26.5533 11.4 26.3775L11.385 3.6204C11.3849 3.42611 11.3308 3.23568 11.2289 3.07029C11.1269 2.9049 10.9811 2.77104 10.8076 2.6836C10.6341 2.59617 10.4397 2.55858 10.2461 2.57504C10.0525 2.59149 9.86729 2.66134 9.71103 2.7768L1.34223 8.9607C1.22073 9.05051 1.12004 9.16548 1.04704 9.29776C0.974033 9.43005 0.93044 9.57653 0.919232 9.7272L0.00303198 22.0788C0.000480932 22.1137 -0.00032007 22.1488 0.000631984 22.1838V22.1835ZM2.15163 21.5034L2.97783 10.3629L9.28593 5.7009L9.29883 24.7482L2.15163 21.5034ZM14.25 30H15.75V27H14.25V30ZM14.25 25.5H15.75V22.5H14.25V25.5ZM14.25 21H15.75V18H14.25V21ZM14.25 16.5H15.75V13.5H14.25V16.5ZM14.25 12H15.75V9H14.25V12ZM14.25 7.5H15.75V4.5H14.25V7.5ZM14.25 3H15.75V0H14.25V3ZM18.6 26.3778C18.5999 26.5535 18.6438 26.7265 18.7279 26.8808C18.8119 27.0352 18.9333 27.1659 19.081 27.2612C19.2287 27.3564 19.3979 27.4131 19.5732 27.4259C19.7484 27.4388 19.9241 27.4075 20.0841 27.3348L29.3841 23.1129C29.5636 23.0314 29.7165 22.9009 29.8253 22.7366C29.9341 22.5722 29.9944 22.3806 29.9994 22.1835C30.0004 22.1485 29.9996 22.1134 29.997 22.0785L29.0808 9.7272C29.0696 9.57653 29.026 9.43005 28.953 9.29776C28.88 9.16548 28.7793 9.05051 28.6578 8.9607L20.289 2.7768C20.1328 2.66134 19.9475 2.59149 19.754 2.57504C19.5604 2.55858 19.366 2.59617 19.1925 2.6836C19.019 2.77104 18.8732 2.9049 18.7712 3.07029C18.6693 3.23568 18.6152 3.42611 18.615 3.6204L18.6 26.3778Z" fill="black"/>
</svg>
