<svg width="70" height="70" viewBox="0 0 70 70" fill="none" xmlns="http://www.w3.org/2000/svg">
<path d="M37.9167 67.0833H32.0833V2.91666H37.9167V67.0833ZM26.25 55.4167H14.5833V14.5833H26.25V8.75H14.5833C11.3458 8.75 8.75 11.3458 8.75 14.5833V55.4167C8.75 56.9638 9.36458 58.4475 10.4585 59.5415C11.5525 60.6354 13.0362 61.25 14.5833 61.25H26.25V55.4167ZM55.4167 20.4167V26.25H61.25V20.4167H55.4167ZM55.4167 14.5833H61.25C61.25 13.0362 60.6354 11.5525 59.5415 10.4585C58.4475 9.36458 56.9638 8.75 55.4167 8.75V14.5833ZM61.25 43.75H55.4167V49.5833H61.25V43.75ZM55.4167 32.0833V37.9167H61.25V32.0833H55.4167ZM49.5833 8.75H43.75V14.5833H49.5833V8.75ZM55.4167 61.25C58.6542 61.25 61.25 58.6542 61.25 55.4167H55.4167V61.25ZM49.5833 55.4167H43.75V61.25H49.5833V55.4167Z" fill="#28522B"/>
</svg>
