<svg width="58" height="58" viewBox="0 0 58 58" fill="none" xmlns="http://www.w3.org/2000/svg">
<path d="M31.25 19.25H11.25V11.25H31.25V19.25ZM25.25 39.25C23.6587 39.25 22.1326 38.6179 21.0074 37.4926C19.8821 36.3674 19.25 34.8413 19.25 33.25C19.25 31.6587 19.8821 30.1326 21.0074 29.0074C22.1326 27.8821 23.6587 27.25 25.25 27.25C26.8413 27.25 28.3674 27.8821 29.4926 29.0074C30.6179 30.1326 31.25 31.6587 31.25 33.25C31.25 34.8413 30.6179 36.3674 29.4926 37.4926C28.3674 38.6179 26.8413 39.25 25.25 39.25ZM35.25 7.25H11.25C10.1891 7.25 9.17172 7.67143 8.42157 8.42157C7.67143 9.17172 7.25 10.1891 7.25 11.25V39.25C7.25 40.3109 7.67143 41.3283 8.42157 42.0784C9.17172 42.8286 10.1891 43.25 11.25 43.25H39.25C40.3109 43.25 41.3283 42.8286 42.0784 42.0784C42.8286 41.3283 43.25 40.3109 43.25 39.25V15.25L35.25 7.25Z" fill="white"/>
</svg>
